<mxfile host="app.diagrams.net" agent="Mozilla/5.0 (Windows NT 10.0; Win64; x64) AppleWebKit/537.36 (KHTML, like Gecko) Chrome/128.0.0.0 YaBrowser/24.10.0.0 Safari/537.36" version="25.0.3">
  <diagram name="Страница — 1" id="jRhbrSzqNcZSBmussmF9">
    <mxGraphModel dx="1290" dy="567" grid="1" gridSize="10" guides="1" tooltips="1" connect="1" arrows="1" fold="1" page="1" pageScale="1" pageWidth="827" pageHeight="1169" math="0" shadow="0">
      <root>
        <mxCell id="0" />
        <mxCell id="1" parent="0" />
        <mxCell id="1pmS6R3jOPWhu0Lzdx4Y-2" value="T№: Название техники" style="ellipse;whiteSpace=wrap;html=1;aspect=fixed;" parent="1" vertex="1">
          <mxGeometry x="44" y="190" width="90" height="90" as="geometry" />
        </mxCell>
        <mxCell id="h3jj5PwnU41JKTZsolO1-3" value="" style="edgeStyle=orthogonalEdgeStyle;rounded=0;orthogonalLoop=1;jettySize=auto;html=1;" edge="1" parent="1" source="1pmS6R3jOPWhu0Lzdx4Y-3" target="h3jj5PwnU41JKTZsolO1-2">
          <mxGeometry relative="1" as="geometry" />
        </mxCell>
        <mxCell id="1pmS6R3jOPWhu0Lzdx4Y-3" value="CVE" style="ellipse;whiteSpace=wrap;html=1;aspect=fixed;" parent="1" vertex="1">
          <mxGeometry x="204" y="50" width="70" height="70" as="geometry" />
        </mxCell>
        <mxCell id="h3jj5PwnU41JKTZsolO1-5" value="" style="edgeStyle=orthogonalEdgeStyle;rounded=0;orthogonalLoop=1;jettySize=auto;html=1;" edge="1" parent="1" source="1pmS6R3jOPWhu0Lzdx4Y-5" target="h3jj5PwnU41JKTZsolO1-4">
          <mxGeometry relative="1" as="geometry" />
        </mxCell>
        <mxCell id="1pmS6R3jOPWhu0Lzdx4Y-5" value="CVE" style="ellipse;whiteSpace=wrap;html=1;aspect=fixed;" parent="1" vertex="1">
          <mxGeometry x="204" y="160" width="70" height="70" as="geometry" />
        </mxCell>
        <mxCell id="h3jj5PwnU41JKTZsolO1-7" value="" style="edgeStyle=orthogonalEdgeStyle;rounded=0;orthogonalLoop=1;jettySize=auto;html=1;" edge="1" parent="1" source="1pmS6R3jOPWhu0Lzdx4Y-6" target="h3jj5PwnU41JKTZsolO1-6">
          <mxGeometry relative="1" as="geometry" />
        </mxCell>
        <mxCell id="1pmS6R3jOPWhu0Lzdx4Y-6" value="CVE" style="ellipse;whiteSpace=wrap;html=1;aspect=fixed;" parent="1" vertex="1">
          <mxGeometry x="204" y="310" width="70" height="70" as="geometry" />
        </mxCell>
        <mxCell id="1pmS6R3jOPWhu0Lzdx4Y-9" value="" style="endArrow=classic;html=1;rounded=0;exitX=1;exitY=0;exitDx=0;exitDy=0;entryX=0;entryY=0.5;entryDx=0;entryDy=0;" parent="1" source="1pmS6R3jOPWhu0Lzdx4Y-2" target="1pmS6R3jOPWhu0Lzdx4Y-3" edge="1">
          <mxGeometry width="50" height="50" relative="1" as="geometry">
            <mxPoint x="254" y="200" as="sourcePoint" />
            <mxPoint x="304" y="150" as="targetPoint" />
          </mxGeometry>
        </mxCell>
        <mxCell id="1pmS6R3jOPWhu0Lzdx4Y-10" value="" style="endArrow=classic;html=1;rounded=0;exitX=1;exitY=0.5;exitDx=0;exitDy=0;entryX=0;entryY=0.5;entryDx=0;entryDy=0;" parent="1" source="1pmS6R3jOPWhu0Lzdx4Y-2" target="1pmS6R3jOPWhu0Lzdx4Y-5" edge="1">
          <mxGeometry width="50" height="50" relative="1" as="geometry">
            <mxPoint x="204" y="310" as="sourcePoint" />
            <mxPoint x="254" y="260" as="targetPoint" />
          </mxGeometry>
        </mxCell>
        <mxCell id="1pmS6R3jOPWhu0Lzdx4Y-11" value="" style="endArrow=classic;html=1;rounded=0;exitX=1;exitY=1;exitDx=0;exitDy=0;entryX=0;entryY=0.5;entryDx=0;entryDy=0;" parent="1" source="1pmS6R3jOPWhu0Lzdx4Y-2" target="1pmS6R3jOPWhu0Lzdx4Y-6" edge="1">
          <mxGeometry width="50" height="50" relative="1" as="geometry">
            <mxPoint x="244" y="360" as="sourcePoint" />
            <mxPoint x="294" y="310" as="targetPoint" />
          </mxGeometry>
        </mxCell>
        <mxCell id="1pmS6R3jOPWhu0Lzdx4Y-12" value="" style="endArrow=none;dashed=1;html=1;dashPattern=1 3;strokeWidth=2;rounded=0;" parent="1" edge="1">
          <mxGeometry width="50" height="50" relative="1" as="geometry">
            <mxPoint x="204" y="280" as="sourcePoint" />
            <mxPoint x="284" y="280" as="targetPoint" />
          </mxGeometry>
        </mxCell>
        <mxCell id="h3jj5PwnU41JKTZsolO1-2" value="Risk" style="ellipse;whiteSpace=wrap;html=1;aspect=fixed;" vertex="1" parent="1">
          <mxGeometry x="324" y="50" width="70" height="70" as="geometry" />
        </mxCell>
        <mxCell id="h3jj5PwnU41JKTZsolO1-4" value="Risk" style="ellipse;whiteSpace=wrap;html=1;aspect=fixed;" vertex="1" parent="1">
          <mxGeometry x="324" y="160" width="70" height="70" as="geometry" />
        </mxCell>
        <mxCell id="h3jj5PwnU41JKTZsolO1-6" value="Risk" style="ellipse;whiteSpace=wrap;html=1;aspect=fixed;" vertex="1" parent="1">
          <mxGeometry x="324" y="310" width="70" height="70" as="geometry" />
        </mxCell>
        <mxCell id="h3jj5PwnU41JKTZsolO1-9" value="" style="shape=flexArrow;endArrow=classic;startArrow=classic;html=1;rounded=0;" edge="1" parent="1">
          <mxGeometry width="100" height="100" relative="1" as="geometry">
            <mxPoint x="414" y="380" as="sourcePoint" />
            <mxPoint x="414" y="40" as="targetPoint" />
          </mxGeometry>
        </mxCell>
        <mxCell id="h3jj5PwnU41JKTZsolO1-10" value="Высокий показатель RIisk" style="text;html=1;align=center;verticalAlign=middle;whiteSpace=wrap;rounded=0;" vertex="1" parent="1">
          <mxGeometry x="434" y="50" width="60" height="30" as="geometry" />
        </mxCell>
        <mxCell id="h3jj5PwnU41JKTZsolO1-11" value="Низкий показатель RIisk" style="text;html=1;align=center;verticalAlign=middle;whiteSpace=wrap;rounded=0;" vertex="1" parent="1">
          <mxGeometry x="434" y="330" width="60" height="30" as="geometry" />
        </mxCell>
        <mxCell id="h3jj5PwnU41JKTZsolO1-18" value="" style="endArrow=classic;html=1;rounded=0;entryX=0;entryY=0.5;entryDx=0;entryDy=0;exitX=1;exitY=1;exitDx=0;exitDy=0;" edge="1" parent="1" source="h3jj5PwnU41JKTZsolO1-10" target="h3jj5PwnU41JKTZsolO1-20">
          <mxGeometry width="50" height="50" relative="1" as="geometry">
            <mxPoint x="480" y="90" as="sourcePoint" />
            <mxPoint x="574" y="200" as="targetPoint" />
          </mxGeometry>
        </mxCell>
        <mxCell id="h3jj5PwnU41JKTZsolO1-19" value="CVE" style="ellipse;whiteSpace=wrap;html=1;aspect=fixed;" vertex="1" parent="1">
          <mxGeometry x="714" y="170" width="70" height="70" as="geometry" />
        </mxCell>
        <mxCell id="h3jj5PwnU41JKTZsolO1-20" value="T№: Название техники" style="ellipse;whiteSpace=wrap;html=1;aspect=fixed;" vertex="1" parent="1">
          <mxGeometry x="574" y="160" width="90" height="90" as="geometry" />
        </mxCell>
        <mxCell id="h3jj5PwnU41JKTZsolO1-23" value="" style="endArrow=none;html=1;rounded=0;exitX=1;exitY=0.5;exitDx=0;exitDy=0;entryX=0;entryY=0.5;entryDx=0;entryDy=0;" edge="1" parent="1" source="h3jj5PwnU41JKTZsolO1-20" target="h3jj5PwnU41JKTZsolO1-19">
          <mxGeometry width="50" height="50" relative="1" as="geometry">
            <mxPoint x="624" y="340" as="sourcePoint" />
            <mxPoint x="674" y="290" as="targetPoint" />
          </mxGeometry>
        </mxCell>
        <mxCell id="h3jj5PwnU41JKTZsolO1-26" value="CVE" style="ellipse;whiteSpace=wrap;html=1;aspect=fixed;" vertex="1" parent="1">
          <mxGeometry x="714" y="50" width="70" height="70" as="geometry" />
        </mxCell>
        <mxCell id="h3jj5PwnU41JKTZsolO1-27" value="T№: Название техники" style="ellipse;whiteSpace=wrap;html=1;aspect=fixed;" vertex="1" parent="1">
          <mxGeometry x="574" y="40" width="90" height="90" as="geometry" />
        </mxCell>
        <mxCell id="h3jj5PwnU41JKTZsolO1-28" value="" style="endArrow=none;html=1;rounded=0;exitX=1;exitY=0.5;exitDx=0;exitDy=0;entryX=0;entryY=0.5;entryDx=0;entryDy=0;" edge="1" parent="1" source="h3jj5PwnU41JKTZsolO1-27" target="h3jj5PwnU41JKTZsolO1-26">
          <mxGeometry width="50" height="50" relative="1" as="geometry">
            <mxPoint x="624" y="220" as="sourcePoint" />
            <mxPoint x="674" y="170" as="targetPoint" />
          </mxGeometry>
        </mxCell>
        <mxCell id="h3jj5PwnU41JKTZsolO1-29" value="CVE" style="ellipse;whiteSpace=wrap;html=1;aspect=fixed;" vertex="1" parent="1">
          <mxGeometry x="714" y="290" width="70" height="70" as="geometry" />
        </mxCell>
        <mxCell id="h3jj5PwnU41JKTZsolO1-30" value="T№: Название техники" style="ellipse;whiteSpace=wrap;html=1;aspect=fixed;" vertex="1" parent="1">
          <mxGeometry x="574" y="280" width="90" height="90" as="geometry" />
        </mxCell>
        <mxCell id="h3jj5PwnU41JKTZsolO1-31" value="" style="endArrow=none;html=1;rounded=0;exitX=1;exitY=0.5;exitDx=0;exitDy=0;entryX=0;entryY=0.5;entryDx=0;entryDy=0;" edge="1" parent="1" source="h3jj5PwnU41JKTZsolO1-30" target="h3jj5PwnU41JKTZsolO1-29">
          <mxGeometry width="50" height="50" relative="1" as="geometry">
            <mxPoint x="624" y="460" as="sourcePoint" />
            <mxPoint x="674" y="410" as="targetPoint" />
          </mxGeometry>
        </mxCell>
      </root>
    </mxGraphModel>
  </diagram>
</mxfile>
